<svg width="72" height="77" viewBox="0 0 72 77" fill="none" xmlns="http://www.w3.org/2000/svg">
<ellipse cx="36" cy="38.5883" rx="36" ry="38.2543" fill="#661CE7"/>
<path d="M28.528 50.3169C26.896 50.3169 25.456 49.9702 24.208 49.2769C22.96 48.5729 21.984 47.5969 21.28 46.3489C20.5867 45.1009 20.24 43.6609 20.24 42.0289V34.6049C20.24 32.9729 20.5867 31.5329 21.28 30.2849C21.984 29.0369 22.96 28.0662 24.208 27.3729C25.456 26.6689 26.896 26.3169 28.528 26.3169C30.16 26.3169 31.5947 26.6689 32.832 27.3729C34.08 28.0662 35.056 29.0369 35.76 30.2849C36.464 31.5329 36.816 32.9729 36.816 34.6049V42.0289C36.816 43.6609 36.464 45.1009 35.76 46.3489C35.056 47.5969 34.08 48.5729 32.832 49.2769C31.5947 49.9702 30.16 50.3169 28.528 50.3169ZM28.528 46.6529C29.3387 46.6529 30.0747 46.4609 30.736 46.0769C31.3973 45.6822 31.92 45.1596 32.304 44.5089C32.688 43.8476 32.88 43.1116 32.88 42.3009V34.3169C32.88 33.4956 32.688 32.7596 32.304 32.1089C31.92 31.4476 31.3973 30.9249 30.736 30.5409C30.0747 30.1462 29.3387 29.9489 28.528 29.9489C27.7173 29.9489 26.9813 30.1462 26.32 30.5409C25.6587 30.9249 25.136 31.4476 24.752 32.1089C24.368 32.7596 24.176 33.4956 24.176 34.3169V42.3009C24.176 43.1116 24.368 43.8476 24.752 44.5089C25.136 45.1596 25.6587 45.6822 26.32 46.0769C26.9813 46.4609 27.7173 46.6529 28.528 46.6529ZM40.6625 49.8049V46.4449L50.5185 37.6609C51.2865 36.9782 51.8198 36.3329 52.1185 35.7249C52.4172 35.1169 52.5665 34.5302 52.5665 33.9649C52.5665 33.1969 52.4012 32.5142 52.0705 31.9169C51.7398 31.3089 51.2812 30.8289 50.6945 30.4769C50.1185 30.1249 49.4518 29.9489 48.6945 29.9489C47.8945 29.9489 47.1852 30.1356 46.5665 30.5089C45.9585 30.8716 45.4838 31.3569 45.1425 31.9649C44.8012 32.5729 44.6412 33.2289 44.6625 33.9329H40.6945C40.6945 32.3969 41.0358 31.0582 41.7185 29.9169C42.4118 28.7756 43.3612 27.8902 44.5665 27.2609C45.7825 26.6316 47.1852 26.3169 48.7745 26.3169C50.2465 26.3169 51.5692 26.6476 52.7425 27.3089C53.9158 27.9596 54.8385 28.8662 55.5105 30.0289C56.1825 31.1809 56.5185 32.5089 56.5185 34.0129C56.5185 35.1116 56.3692 36.0342 56.0705 36.7809C55.7718 37.5276 55.3238 38.2156 54.7265 38.8449C54.1398 39.4742 53.4092 40.1729 52.5345 40.9409L45.5425 47.1329L45.1905 46.1729H56.5185V49.8049H40.6625Z" fill="white"/>
</svg>
