<svg width="72" height="77" viewBox="0 0 72 77" fill="none" xmlns="http://www.w3.org/2000/svg">
<ellipse cx="36" cy="38.2543" rx="36" ry="38.2543" fill="#661CE7"/>
<path d="M28.528 49.9829C26.896 49.9829 25.456 49.6363 24.208 48.9429C22.96 48.2389 21.984 47.2629 21.28 46.0149C20.5867 44.7669 20.24 43.3269 20.24 41.6949V34.2709C20.24 32.6389 20.5867 31.1989 21.28 29.9509C21.984 28.7029 22.96 27.7323 24.208 27.0389C25.456 26.3349 26.896 25.9829 28.528 25.9829C30.16 25.9829 31.5947 26.3349 32.832 27.0389C34.08 27.7323 35.056 28.7029 35.76 29.9509C36.464 31.1989 36.816 32.6389 36.816 34.2709V41.6949C36.816 43.3269 36.464 44.7669 35.76 46.0149C35.056 47.2629 34.08 48.2389 32.832 48.9429C31.5947 49.6363 30.16 49.9829 28.528 49.9829ZM28.528 46.3189C29.3387 46.3189 30.0747 46.1269 30.736 45.7429C31.3973 45.3483 31.92 44.8256 32.304 44.1749C32.688 43.5136 32.88 42.7776 32.88 41.9669V33.9829C32.88 33.1616 32.688 32.4256 32.304 31.7749C31.92 31.1136 31.3973 30.5909 30.736 30.2069C30.0747 29.8123 29.3387 29.6149 28.528 29.6149C27.7173 29.6149 26.9813 29.8123 26.32 30.2069C25.6587 30.5909 25.136 31.1136 24.752 31.7749C24.368 32.4256 24.176 33.1616 24.176 33.9829V41.9669C24.176 42.7776 24.368 43.5136 24.752 44.1749C25.136 44.8256 25.6587 45.3483 26.32 45.7429C26.9813 46.1269 27.7173 46.3189 28.528 46.3189ZM45.3025 49.5029V30.6709L40.9825 33.3109V29.0549L45.3025 26.4629H49.2385V49.5029H45.3025Z" fill="white"/>
</svg>
