<svg width="72" height="78" viewBox="0 0 72 78" fill="none" xmlns="http://www.w3.org/2000/svg">
<ellipse cx="36" cy="38.9222" rx="36" ry="38.2543" fill="#661CE7"/>
<path d="M28.528 50.6509C26.896 50.6509 25.456 50.3042 24.208 49.6109C22.96 48.9069 21.984 47.9309 21.28 46.6829C20.5867 45.4349 20.24 43.9949 20.24 42.3629V34.9389C20.24 33.3069 20.5867 31.8669 21.28 30.6189C21.984 29.3709 22.96 28.4002 24.208 27.7069C25.456 27.0029 26.896 26.6509 28.528 26.6509C30.16 26.6509 31.5947 27.0029 32.832 27.7069C34.08 28.4002 35.056 29.3709 35.76 30.6189C36.464 31.8669 36.816 33.3069 36.816 34.9389V42.3629C36.816 43.9949 36.464 45.4349 35.76 46.6829C35.056 47.9309 34.08 48.9069 32.832 49.6109C31.5947 50.3042 30.16 50.6509 28.528 50.6509ZM28.528 46.9869C29.3387 46.9869 30.0747 46.7949 30.736 46.4109C31.3973 46.0162 31.92 45.4936 32.304 44.8429C32.688 44.1816 32.88 43.4456 32.88 42.6349V34.6509C32.88 33.8296 32.688 33.0936 32.304 32.4429C31.92 31.7816 31.3973 31.2589 30.736 30.8749C30.0747 30.4802 29.3387 30.2829 28.528 30.2829C27.7173 30.2829 26.9813 30.4802 26.32 30.8749C25.6587 31.2589 25.136 31.7816 24.752 32.4429C24.368 33.0936 24.176 33.8296 24.176 34.6509V42.6349C24.176 43.4456 24.368 44.1816 24.752 44.8429C25.136 45.4936 25.6587 46.0162 26.32 46.4109C26.9813 46.7949 27.7173 46.9869 28.528 46.9869ZM47.8945 50.6029C46.7425 50.6029 45.6545 50.3789 44.6305 49.9309C43.6065 49.4829 42.7158 48.8482 41.9585 48.0269C41.2118 47.2056 40.6732 46.2349 40.3425 45.1149L44.0705 44.1069C44.3372 45.0242 44.8225 45.7336 45.5265 46.2349C46.2412 46.7256 47.0252 46.9656 47.8785 46.9549C48.6358 46.9549 49.3132 46.7789 49.9105 46.4269C50.5078 46.0749 50.9772 45.6002 51.3185 45.0029C51.6598 44.3949 51.8305 43.7176 51.8305 42.9709C51.8305 41.8296 51.4625 40.8749 50.7265 40.1069C49.9905 39.3389 49.0412 38.9549 47.8785 38.9549C47.5265 38.9549 47.1798 39.0029 46.8385 39.0989C46.5078 39.1949 46.1878 39.3282 45.8785 39.4989L44.1185 36.4589L51.8625 29.8349L52.1985 30.7629H41.2385V27.1309H55.3665V30.7789L49.1425 36.7629L49.1105 35.6269C50.5078 35.7229 51.6972 36.1122 52.6785 36.7949C53.6705 37.4776 54.4278 38.3576 54.9505 39.4349C55.4838 40.5122 55.7505 41.6909 55.7505 42.9709C55.7505 44.4216 55.3932 45.7229 54.6785 46.8749C53.9745 48.0269 53.0252 48.9389 51.8305 49.6109C50.6465 50.2722 49.3345 50.6029 47.8945 50.6029Z" fill="white"/>
</svg>
